<?xml version="1.0" standalone="no"?>
<!DOCTYPE svg PUBLIC "-//W3C//DTD SVG 20010904//EN"
 "http://www.w3.org/TR/2001/REC-SVG-20010904/DTD/svg10.dtd">
<svg version="1.0" xmlns="http://www.w3.org/2000/svg"
 width="1600.000000pt" height="1600.000000pt" viewBox="0 0 1600.000000 1600.000000"
 preserveAspectRatio="xMidYMid meet">
<metadata>
Created by potrace 1.14, written by Peter Selinger 2001-2017
</metadata>
<g transform="translate(0.000000,1600.000000) scale(0.100000,-0.100000)"
fill="#000000" stroke="none">
<path d="M7924 15917 c-50 -34 -102 -70 -115 -79 -37 -27 -99 -68 -104 -68 -2
0 -95 -55 -207 -123 -112 -67 -258 -153 -325 -191 -68 -37 -123 -72 -123 -77
0 -5 -6 -9 -14 -9 -16 0 -205 -96 -227 -116 -8 -8 -21 -14 -27 -14 -7 0 -12
-5 -12 -11 0 -6 -6 -9 -14 -6 -8 3 -16 3 -18 -1 -2 -4 -73 -42 -158 -86 -85
-43 -162 -82 -170 -87 -8 -5 -66 -33 -128 -63 -63 -30 -120 -60 -128 -67 -8
-6 -14 -9 -14 -6 0 3 -32 -10 -70 -29 -39 -19 -75 -34 -80 -34 -6 0 -10 -5
-10 -12 0 -6 -3 -9 -6 -5 -3 3 -27 -5 -52 -18 -26 -13 -76 -35 -112 -50 -36
-15 -96 -42 -135 -60 -38 -18 -91 -40 -117 -50 -27 -10 -48 -22 -48 -26 0 -5
-9 -9 -19 -9 -11 0 -22 -4 -25 -9 -3 -4 -19 -11 -36 -15 -18 -3 -29 -10 -25
-16 4 -6 -6 -10 -22 -10 -15 0 -55 -12 -88 -26 -33 -14 -80 -33 -105 -41 -25
-9 -47 -19 -50 -23 -3 -4 -23 -13 -45 -21 -22 -7 -46 -17 -53 -23 -7 -5 -27
-10 -44 -11 -17 -2 -33 -7 -37 -13 -3 -5 -19 -12 -36 -15 -38 -7 -225 -75
-240 -87 -6 -5 -23 -10 -37 -12 -15 -2 -30 -7 -34 -11 -4 -4 -16 -7 -26 -7
-10 0 -18 -4 -18 -8 0 -4 -11 -9 -25 -10 -14 -1 -39 -9 -55 -17 -17 -9 -30
-12 -30 -8 0 4 -5 2 -12 -5 -7 -7 -21 -12 -33 -12 -11 0 -30 -7 -41 -15 -12
-8 -24 -12 -27 -8 -4 3 -21 -2 -40 -10 -18 -9 -53 -19 -77 -22 -24 -3 -46 -9
-50 -13 -3 -4 -12 -8 -20 -8 -8 0 -22 -3 -30 -7 -18 -7 -131 -40 -145 -43 -5
-1 -12 -3 -15 -4 -3 -1 -16 -3 -29 -6 -14 -2 -45 -12 -70 -20 -25 -9 -62 -18
-81 -21 -19 -3 -46 -10 -60 -16 -14 -6 -32 -11 -40 -12 -8 0 -32 -7 -52 -14
-20 -7 -57 -14 -81 -16 -25 -1 -55 -9 -68 -16 -13 -7 -37 -13 -54 -15 -61 -4
-160 -28 -176 -41 -9 -7 -23 -11 -31 -8 -8 3 -53 -3 -99 -14 -46 -11 -102 -23
-124 -27 -22 -4 -42 -8 -45 -9 -5 -1 -60 -12 -100 -20 -14 -3 -45 -7 -70 -10
-25 -3 -56 -8 -70 -10 -14 -3 -43 -8 -65 -11 -22 -3 -43 -8 -46 -10 -4 -2 -31
-6 -60 -10 -30 -3 -67 -9 -84 -14 -16 -4 -37 -8 -45 -8 -20 1 -141 -12 -160
-17 -26 -7 -92 -15 -165 -20 -202 -14 -223 -21 -227 -73 0 -15 -3 -52 -5 -82
-2 -30 -6 -84 -8 -120 -2 -36 -7 -99 -11 -140 -11 -101 -11 -1217 0 -1405 4
-82 10 -195 13 -250 2 -55 8 -158 13 -230 8 -120 12 -168 25 -315 7 -74 17
-188 20 -225 2 -30 13 -137 21 -207 22 -207 26 -234 40 -313 2 -11 7 -56 10
-100 3 -44 8 -87 11 -95 5 -13 18 -104 37 -250 16 -133 30 -200 38 -188 6 8 8
0 5 -24 -4 -23 -1 -39 6 -42 9 -3 8 -8 -3 -15 -8 -6 -10 -11 -5 -11 6 0 12
-20 12 -45 1 -24 6 -68 12 -97 6 -29 13 -68 16 -87 3 -19 8 -37 10 -41 2 -4 7
-30 10 -59 3 -29 11 -64 17 -79 6 -15 10 -39 9 -54 -1 -14 3 -29 9 -33 5 -3 8
-10 6 -14 -3 -4 0 -27 5 -52 6 -24 12 -63 14 -87 2 -24 8 -49 13 -55 4 -7 9
-28 11 -47 1 -19 5 -37 9 -40 4 -3 8 -14 9 -25 4 -45 38 -216 53 -265 6 -19
13 -48 15 -65 9 -57 60 -273 75 -315 5 -14 12 -42 15 -63 3 -20 14 -62 24 -92
10 -29 22 -73 26 -97 4 -24 12 -51 17 -61 5 -10 12 -31 14 -45 8 -44 24 -100
60 -212 19 -58 34 -113 34 -122 0 -10 4 -18 9 -18 5 0 11 -19 14 -42 5 -48 8
-58 37 -143 12 -33 24 -71 26 -83 3 -13 21 -70 40 -125 20 -56 37 -112 39
-124 2 -12 7 -28 11 -35 5 -7 9 -17 10 -23 3 -15 40 -121 69 -200 15 -38 30
-83 34 -100 5 -16 14 -43 21 -60 32 -77 130 -336 135 -357 2 -10 15 -45 29
-78 14 -33 38 -88 52 -123 37 -91 45 -109 59 -142 7 -16 19 -46 26 -65 7 -19
19 -44 26 -55 7 -11 13 -27 13 -36 0 -9 7 -22 15 -29 8 -7 13 -15 11 -19 -4
-6 21 -66 43 -101 5 -8 22 -49 37 -90 16 -41 36 -82 44 -90 8 -9 16 -29 18
-45 2 -17 9 -37 16 -45 7 -8 27 -44 44 -80 90 -191 181 -374 213 -430 5 -8 18
-33 29 -55 10 -22 39 -76 63 -120 24 -44 60 -111 81 -150 21 -38 43 -73 48
-76 5 -3 9 -10 7 -14 -2 -6 15 -36 79 -145 12 -19 47 -80 78 -135 32 -55 83
-140 114 -190 58 -92 141 -224 163 -260 6 -11 28 -44 48 -75 20 -30 39 -65 43
-77 4 -12 16 -25 27 -28 10 -4 19 -12 19 -18 0 -12 86 -156 99 -167 3 -3 22
-27 41 -55 19 -27 38 -52 42 -53 4 -2 8 -9 8 -14 0 -6 18 -35 40 -64 22 -29
40 -57 40 -63 0 -5 3 -11 8 -13 11 -5 52 -66 52 -78 0 -5 4 -10 9 -10 5 0 25
-25 45 -55 20 -30 45 -60 56 -68 11 -8 17 -17 13 -20 -6 -7 53 -89 69 -95 4
-2 8 -10 8 -18 0 -8 7 -17 15 -20 8 -4 15 -12 15 -19 0 -7 3 -15 8 -17 4 -1
25 -28 47 -58 21 -30 54 -70 72 -88 18 -18 33 -36 33 -40 0 -11 50 -74 208
-267 123 -149 156 -188 172 -205 8 -9 33 -38 55 -65 22 -28 64 -76 95 -107 30
-31 68 -73 83 -93 16 -19 32 -33 38 -30 5 4 9 -1 9 -10 0 -9 19 -36 43 -59 23
-24 68 -71 101 -105 32 -33 62 -58 67 -55 5 3 9 -1 9 -9 0 -29 467 -477 497
-477 5 0 15 -10 22 -22 15 -26 147 -137 285 -241 50 -37 107 -81 126 -97 34
-27 279 -200 284 -200 2 0 37 -21 77 -47 106 -68 104 -67 214 -127 55 -30 153
-80 217 -111 l117 -56 113 57 c62 31 126 66 143 78 16 11 32 21 35 21 15 2
120 60 120 67 0 4 3 7 8 6 4 -1 44 20 90 47 45 28 90 55 100 60 51 30 237 159
260 180 15 14 31 25 37 25 5 0 21 9 35 20 14 12 87 67 163 125 142 107 292
229 338 274 14 14 54 48 87 75 34 27 64 58 68 68 3 10 10 16 15 13 5 -4 9 -1
9 4 0 6 7 11 16 11 8 0 13 4 9 9 -3 6 5 15 17 21 13 7 39 27 58 46 84 81 376
373 386 386 6 7 26 27 45 44 54 48 209 218 209 229 0 2 24 28 53 58 93 94 172
188 175 208 2 10 8 19 13 19 12 0 79 71 79 84 0 4 11 17 25 28 14 11 25 24 25
30 0 6 6 16 14 22 13 10 101 115 149 177 9 13 17 29 17 36 0 7 7 13 15 13 9 0
21 12 27 27 7 16 21 37 33 48 37 36 75 93 75 113 0 12 6 19 17 18 9 0 22 8 27
19 6 12 27 41 47 65 20 25 54 72 75 105 21 33 46 69 57 80 10 11 30 36 43 57
13 20 28 39 34 43 6 3 8 11 5 16 -4 5 -1 9 4 9 6 0 10 3 9 8 -3 7 5 18 42 61
26 29 120 171 120 180 0 5 7 11 15 15 8 3 15 9 15 14 0 8 78 134 98 157 5 6
21 33 37 60 16 28 36 59 46 70 9 11 26 38 38 60 24 45 33 60 79 127 17 26 32
51 32 54 0 4 15 30 33 58 19 28 45 71 58 96 13 25 30 51 37 58 6 7 12 22 12
33 0 10 5 19 11 19 5 0 7 5 4 10 -3 6 -2 10 4 10 10 0 69 95 122 195 14 28 41
77 59 110 69 126 79 148 73 158 -3 6 -1 7 6 3 7 -5 17 5 26 28 9 20 15 39 14
42 0 4 4 10 9 13 17 11 54 93 48 107 -3 8 1 14 8 14 13 0 36 41 36 64 0 8 7
16 15 20 8 3 15 17 15 31 0 15 4 24 9 20 6 -3 13 10 17 30 3 19 10 32 15 29 8
-5 14 24 10 53 -1 7 4 10 11 8 9 -4 19 8 28 32 8 21 13 41 12 44 0 4 8 15 18
24 11 10 20 21 20 25 0 4 10 29 22 56 12 27 21 53 20 58 -2 5 5 17 14 27 9 10
17 32 18 49 1 16 6 30 12 30 10 0 29 32 33 53 0 4 12 29 26 57 14 27 26 59 28
70 2 11 8 25 14 31 6 6 9 19 6 28 -4 9 -2 13 2 9 12 -11 47 71 40 93 -5 14 -2
17 9 13 12 -5 15 -2 10 10 -3 9 -1 16 5 16 6 0 11 8 11 18 0 10 7 27 15 38 8
10 15 29 15 42 0 12 4 22 10 22 5 0 13 12 16 27 4 15 13 38 20 52 7 13 11 28
8 33 -3 4 0 8 7 8 7 0 9 3 6 7 -4 3 -2 12 4 20 6 7 8 13 4 13 -5 0 -1 8 7 18
9 9 21 35 28 57 7 22 19 54 26 70 25 60 37 90 39 100 1 6 3 12 4 15 1 3 4 15
7 28 2 12 11 34 20 48 16 23 15 24 -1 17 -13 -4 -16 -3 -11 5 4 7 14 12 22 12
8 0 14 9 14 20 0 28 2 33 17 48 7 7 13 21 13 30 0 10 6 26 13 37 7 11 14 34
16 50 2 17 7 32 11 35 11 7 50 129 50 157 0 12 5 23 11 23 5 0 8 4 5 9 -4 5
-3 11 2 13 4 1 18 37 31 78 13 41 32 99 42 127 10 29 16 60 12 69 -4 12 -3 15
5 10 14 -9 26 35 17 63 -5 15 -2 21 10 21 9 0 14 4 11 9 -3 5 0 13 7 19 7 6
14 25 15 42 1 17 13 58 27 91 13 32 22 59 19 59 -2 0 4 21 14 48 10 26 18 54
17 62 -1 8 10 44 23 80 13 36 24 80 24 97 0 18 4 31 8 28 9 -5 39 110 43 162
1 17 5 29 9 27 4 -3 12 15 18 38 6 24 15 54 19 68 4 14 7 33 5 43 -1 10 4 35
13 55 25 60 81 292 70 292 -6 0 -3 8 5 18 8 9 18 35 22 57 4 22 10 54 13 70 3
17 6 41 7 55 0 14 5 28 9 31 9 6 32 101 40 164 3 22 15 78 27 125 12 47 23 96
25 110 1 14 8 43 13 65 6 22 12 58 13 80 2 22 9 55 16 73 8 18 11 37 8 42 -3
5 -2 11 3 14 5 3 7 21 6 40 -2 20 0 36 4 36 5 0 9 17 11 38 5 58 5 65 -3 92
-7 23 -7 24 6 7 13 -17 16 -6 32 98 10 63 16 119 12 122 -3 3 -1 12 5 19 6 7
13 35 15 61 3 26 7 62 10 78 25 156 34 221 39 279 3 38 8 73 11 78 3 5 7 28
10 51 2 23 8 74 13 112 6 39 13 99 16 135 3 36 8 83 11 105 3 22 10 74 15 115
5 41 11 89 13 105 3 17 7 75 10 130 4 55 9 125 11 155 3 30 8 80 11 110 3 30
6 66 7 80 2 14 -1 32 -5 41 -4 9 -4 19 -1 23 11 11 20 97 28 271 4 72 9 148
12 170 8 68 11 1349 2 1366 -4 9 -9 61 -10 117 -1 56 -6 102 -11 102 -5 0 -6
5 -3 10 4 6 -8 10 -27 11 -18 0 -40 2 -48 3 -8 2 -49 6 -89 10 -41 4 -77 9
-80 11 -9 5 -151 19 -188 18 -18 0 -30 4 -27 8 3 5 -15 10 -40 10 -25 1 -49 2
-53 3 -36 9 -74 17 -103 21 -19 3 -48 8 -63 11 -27 6 -38 8 -112 20 -16 3 -40
5 -53 5 -13 -1 -31 3 -41 8 -10 6 -35 12 -57 15 -21 2 -51 9 -66 15 -15 5 -48
13 -74 16 -25 3 -50 7 -53 10 -15 9 -61 13 -56 5 3 -5 1 -11 -4 -14 -5 -4 -12
2 -16 13 -4 15 -22 22 -73 31 -37 6 -98 20 -136 30 -38 11 -72 17 -77 15 -4
-3 -10 -1 -13 4 -4 5 -18 8 -32 5 -14 -3 -23 -1 -20 5 3 5 -9 11 -27 14 -70
12 -144 30 -172 43 -43 18 -124 36 -136 29 -5 -4 -9 -2 -9 3 0 12 -88 37 -114
33 -11 -1 -16 2 -12 8 5 7 -3 11 -19 11 -15 0 -36 5 -48 11 -18 10 -87 32
-139 44 -9 2 -26 9 -37 15 -11 6 -40 11 -63 13 -42 2 -73 18 -60 31 3 4 -1 4
-10 1 -9 -4 -30 1 -47 9 -17 9 -34 15 -38 15 -4 -1 -24 5 -42 13 -19 9 -41 14
-48 11 -7 -3 -13 0 -13 5 0 6 -25 16 -55 23 -30 7 -55 16 -55 21 0 4 -6 8 -13
8 -12 0 -205 72 -409 152 -42 16 -82 27 -87 23 -6 -3 -11 -2 -11 4 0 17 -79
53 -101 46 -13 -4 -19 -2 -17 7 2 7 -16 19 -42 28 -25 8 -70 27 -100 42 -84
40 -128 57 -134 50 -3 -3 -6 0 -6 6 0 7 -9 12 -20 12 -11 0 -20 5 -20 10 0 6
-5 10 -10 10 -6 0 -42 15 -80 34 -37 19 -71 32 -74 28 -3 -3 -14 2 -23 10 -28
24 -83 49 -93 43 -6 -3 -10 -2 -10 4 0 13 -53 41 -78 41 -11 0 -25 7 -32 15
-14 17 -177 98 -197 98 -7 0 -13 4 -13 8 0 6 -33 22 -50 24 -3 0 -18 9 -35 21
-16 11 -48 30 -70 41 -22 11 -88 45 -147 76 -60 31 -108 54 -108 50 0 -4 -8 2
-19 13 -10 11 -34 27 -52 34 -19 7 -45 21 -59 30 -61 41 -140 78 -146 69 -3
-5 -21 6 -39 26 -19 19 -39 35 -46 35 -6 0 -37 17 -69 38 -32 20 -70 44 -86
53 -16 9 -82 49 -147 88 -65 39 -121 71 -126 71 -4 0 -19 9 -32 21 -13 11 -53
39 -89 60 -93 56 -104 63 -110 69 -3 3 -75 51 -160 108 -85 56 -162 109 -171
117 -24 23 -37 18 -135 -48z m2671 -13637 c3 -5 1 -10 -4 -10 -6 0 -11 5 -11
10 0 6 2 10 4 10 3 0 8 -4 11 -10z"/>
</g>
</svg>
